<svg width="23" height="20" viewBox="0 0 23 20" fill="none" xmlns="http://www.w3.org/2000/svg">
<path d="M16.3587 0H6.31952C6.10923 0 5.90167 0.0475777 5.71238 0.13917C5.4652 0.258775 5.25885 0.448724 5.11923 0.685178L0.332027 8.79253C0.114659 9.16066 0 9.58034 0 10.0079C0 10.4254 0.109396 10.8357 0.317295 11.1979L4.57675 18.6176C4.85249 19.0979 5.2667 19.4839 5.76526 19.7251C6.13913 19.906 6.54908 20 6.96442 20H16.3478C16.7736 20 17.1903 19.8772 17.548 19.6464C17.845 19.4548 18.0918 19.1949 18.2678 18.8884L22.6827 11.1979C22.8906 10.8357 23 10.4254 23 10.0079C23 9.58034 22.8853 9.16066 22.668 8.79253L18.0444 0.962218C17.801 0.550129 17.4152 0.241453 16.9597 0.0945318C16.7655 0.0318957 16.5628 0 16.3587 0Z" fill="#FCFCFC"/>
<rect x="7.1875" y="8.96533" width="8.625" height="1.37931" fill="#2B2B2B"/>
<rect x="12.2188" y="5.51709" width="8.27586" height="1.4375" transform="rotate(90 12.2188 5.51709)" fill="#2B2B2B"/>
</svg>
