<svg width="32" height="32" viewBox="0 0 32 32" fill="none" xmlns="http://www.w3.org/2000/svg">
<path opacity="0.2" d="M16 32C24.8366 32 32 24.8366 32 16C32 7.16344 24.8366 0 16 0C7.16344 0 0 7.16344 0 16C0 24.8366 7.16344 32 16 32Z" fill="#F2C869"/>
<path fill-rule="evenodd" clip-rule="evenodd" d="M19.4636 7.38452C16.6216 7.38452 14.3169 8.17618 14.3169 9.15362V10.7233C14.5921 11.2866 16.5356 11.999 19.4636 11.999C22.3915 11.999 24.3342 11.2849 24.6093 10.7233V9.15362C24.6102 8.17618 22.3064 7.38452 19.4636 7.38452Z" fill="#F2C869"/>
<path fill-rule="evenodd" clip-rule="evenodd" d="M8.89329 21.3379L8.82038 21.1904V21.0149C8.51048 21.2424 8.33167 21.4955 8.33167 21.7665V23.3362C8.60684 23.8995 10.5504 24.6119 13.4783 24.6119C16.4063 24.6119 18.3489 23.8978 18.625 23.3362V22.5215C17.5868 22.8385 16.2179 23.0243 14.7014 23.0243C11.7674 23.0209 9.37853 22.3298 8.89329 21.3379V21.3379Z" fill="#EFD98B"/>
<path fill-rule="evenodd" clip-rule="evenodd" d="M9.54956 20.5683V21.0259C9.82473 21.5892 11.7683 22.3016 14.6962 22.3016C17.6242 22.3016 19.5668 21.5875 19.8429 21.0259V19.4563C19.8394 19.3412 19.8064 19.2279 19.7474 19.1282V19.3736L19.6745 19.5219C19.1884 20.5129 16.8038 21.2049 13.8681 21.2049C12.1546 21.2049 10.6259 20.9654 9.54956 20.5683Z" fill="#E1AB4C"/>
<path fill-rule="evenodd" clip-rule="evenodd" d="M17.6771 16.7669V15.198C17.6771 14.2215 15.3724 13.429 12.5304 13.429C9.68845 13.429 7.38464 14.2206 7.38464 15.198V16.7677C7.65895 17.331 9.60338 18.0434 12.5313 18.0434C15.4592 18.0434 17.4028 17.3285 17.6771 16.7669V16.7669Z" fill="#FFD97A"/>
<path fill-rule="evenodd" clip-rule="evenodd" d="M18.4106 16.8062V16.9331L18.3377 17.0805C17.8516 18.0716 15.467 18.7636 12.5313 18.7636C11.0738 18.7636 9.75007 18.5923 8.72925 18.2983V19.2101C9.00442 19.7734 10.948 20.4858 13.8759 20.4858C16.8038 20.4858 18.7465 19.7717 19.0226 19.2101V17.6396C19.0226 17.3379 18.7995 17.0533 18.4106 16.8062V16.8062Z" fill="#FAC04A"/>
<path fill-rule="evenodd" clip-rule="evenodd" d="M14.3177 11.6965V12.8163C15.8724 13.0038 17.2752 13.446 17.9618 14.1678C18.4271 14.2104 18.9297 14.2343 19.4644 14.2343C22.3915 14.2343 24.335 13.5202 24.6102 12.9586V11.6965C23.5364 12.3706 21.4913 12.7191 19.4635 12.7191C17.4358 12.7191 15.3915 12.3706 14.3177 11.6965Z" fill="#F4CE83"/>
<path fill-rule="evenodd" clip-rule="evenodd" d="M18.3793 14.9193C18.3993 15.0122 18.4097 15.1068 18.4097 15.2014V15.9896C18.6771 16.1174 18.9271 16.2785 19.1519 16.4685H19.4627C22.3897 16.4685 24.3333 15.7544 24.6085 15.1928V13.9316C23.5347 14.6066 21.4904 14.9551 19.4627 14.9551C19.1016 14.9534 18.7361 14.9423 18.3793 14.9193V14.9193Z" fill="#FFDA7F"/>
<path fill-rule="evenodd" clip-rule="evenodd" d="M19.7552 17.6404V18.1014C19.9843 18.2565 20.1823 18.4533 20.3376 18.68C22.7734 18.5556 24.3637 17.9284 24.6102 17.4282V16.1653C23.5729 16.8163 21.631 17.1632 19.6736 17.1853C19.7265 17.331 19.7543 17.4853 19.7552 17.6404Z" fill="#E8C278"/>
<path fill-rule="evenodd" clip-rule="evenodd" d="M20.579 19.4564V20.9008C22.8759 20.7482 24.3715 20.1492 24.6094 19.6617V18.4031C23.7318 18.9536 22.2075 19.2868 20.5729 19.3907C20.5755 19.4112 20.579 19.4368 20.579 19.4564V19.4564Z" fill="#FFD166"/>
<path fill-rule="evenodd" clip-rule="evenodd" d="M19.3568 22.2488V23.3114H19.4635C22.3055 23.3114 24.6093 22.5197 24.6093 21.5423V20.6331C23.6822 21.2151 22.026 21.5542 20.2899 21.6361C20.0225 21.8977 19.7048 22.1056 19.3568 22.2488H19.3568Z" fill="#E0C390"/>
</svg>
