<svg width="32" height="33" viewBox="0 0 32 33" fill="none" xmlns="http://www.w3.org/2000/svg">
<path d="M23.05 1.5L17.4 9.95H20.2L26.5 1.5H23.05Z" fill="#B77FFF"/>
<path d="M20.2 1.5L14.6 9.95H17.4L23.05 1.5H20.2Z" fill="#721FDD"/>
<path d="M17.4 1.5L11.8 9.95H14.6L20.2 1.5H17.4Z" fill="#DECFF1"/>
<path d="M16 31.5001C21.6885 31.5001 26.3 26.8887 26.3 21.2001C26.3 15.5116 21.6885 10.9001 16 10.9001C10.3114 10.9001 5.69995 15.5116 5.69995 21.2001C5.69995 26.8887 10.3114 31.5001 16 31.5001Z" fill="#FFCE31"/>
<path d="M10.8499 8.05005C10.5999 8.05005 10.3999 8.25005 10.3999 8.50005V12.7C10.3999 12.95 10.5999 13.15 10.8499 13.15H21.1499C21.3999 13.15 21.5999 12.95 21.5999 12.7V8.50005C21.5999 8.25005 21.3999 8.05005 21.1499 8.05005H10.8499ZM20.6999 11.35C20.6999 11.6 20.4999 11.8 20.2499 11.8H11.7999C11.5499 11.8 11.3499 11.6 11.3499 11.35V9.45005C11.3499 9.20005 11.5499 9.00005 11.7999 9.00005H20.2499C20.4999 9.00005 20.6999 9.20005 20.6999 9.45005V11.35Z" fill="#FFCE31"/>
<path opacity="0.5" d="M7.15002 22.4C7.15002 16.8 11.45 12.25 16.95 11.85C16.7 11.85 16.4 11.8 16.15 11.8C10.9 11.8 6.65002 16.05 6.65002 21.35C6.65002 22.9 7.05002 24.4 7.70002 25.7C7.35002 24.65 7.15002 23.55 7.15002 22.4Z" fill="#89664C"/>
<path opacity="0.33" d="M19.95 29.15C24.6 26.05 26 20 23.3 15.3L23.75 15.9C26.65 20.2 25.45 26.05 21.1 29C19.8 29.9 18.35 30.4 16.9 30.55C18 30.25 19 29.8 19.95 29.15Z" fill="white"/>
<path d="M11.8 9.95H14.6L8.95 1.5H5.5L11.8 9.95Z" fill="#DECFF1"/>
<path d="M14.6 9.95H17.4L11.8 1.5H8.94995L14.6 9.95Z" fill="#721FDD"/>
<path opacity="0.5" d="M16.45 2.8999L15.05 4.9999L18.35 9.9499H20.2L20.7 9.2499L16.45 2.8999Z" fill="#898989"/>
<path d="M17.4 9.95H20.2L14.6 1.5H11.8L17.4 9.95Z" fill="#B77FFF"/>
<path opacity="0.5" d="M13.4 18.1001V18.6001C13.9 18.6001 14.35 18.5001 14.8 18.3001V17.6001C14.4 17.9001 13.95 18.0501 13.4 18.1001ZM16.7 14.8501H17.15V25.6501H16.7V14.8501ZM18.6 26.1001V27.5001H13.4V28.0001H19.05V26.1001H18.6Z" fill="#292828"/>
<path opacity="0.33" d="M17.15 25.6499H18.55V26.0999H17.15V25.6499ZM15.3 14.8499H16.7V14.3999H14.8C14.8 15.4499 13.95 16.2999 12.9 16.2999V18.1499C13.05 18.1499 13.2 18.1499 13.35 18.0999V16.6999C14.45 16.7499 15.3 15.8999 15.3 14.8499ZM15.3 26.0999V18.0999C15.15 18.1999 15 18.2499 14.85 18.3499V25.6499H12.95V27.4999H13.4V26.0999H15.3Z" fill="white"/>
</svg>
