<svg width="32" height="33" viewBox="0 0 32 33" fill="none" xmlns="http://www.w3.org/2000/svg">
<path d="M23.05 1.5L17.4 9.95H20.2L26.5 1.5H23.05Z" fill="#B77FFF"/>
<path d="M20.2 1.5L14.6 9.95H17.4L23.05 1.5H20.2Z" fill="#721FDD"/>
<path d="M17.4 1.5L11.8 9.95H14.6L20.2 1.5H17.4Z" fill="#DECFF1"/>
<path d="M16 31.5001C21.6885 31.5001 26.3 26.8887 26.3 21.2001C26.3 15.5116 21.6885 10.9001 16 10.9001C10.3114 10.9001 5.69995 15.5116 5.69995 21.2001C5.69995 26.8887 10.3114 31.5001 16 31.5001Z" fill="#D3976E"/>
<path d="M10.8499 8.05005C10.5999 8.05005 10.3999 8.25005 10.3999 8.50005V12.7C10.3999 12.95 10.5999 13.15 10.8499 13.15H21.1499C21.3999 13.15 21.5999 12.95 21.5999 12.7V8.50005C21.5999 8.25005 21.3999 8.05005 21.1499 8.05005H10.8499ZM20.6999 11.35C20.6999 11.6 20.4999 11.8 20.2499 11.8H11.7999C11.5499 11.8 11.3499 11.6 11.3499 11.35V9.45005C11.3499 9.20005 11.5499 9.00005 11.7999 9.00005H20.2499C20.4999 9.00005 20.6999 9.20005 20.6999 9.45005V11.35Z" fill="#D3976E"/>
<path opacity="0.5" d="M7.15002 22.4C7.15002 16.8 11.45 12.25 16.95 11.85C16.7 11.85 16.4 11.8 16.15 11.8C10.9 11.8 6.65002 16.05 6.65002 21.35C6.65002 22.9 7.05002 24.4 7.70002 25.7C7.35002 24.65 7.15002 23.55 7.15002 22.4Z" fill="#323232"/>
<path opacity="0.33" d="M19.95 29.15C24.6 26.05 26 20 23.3 15.3L23.75 15.9C26.65 20.2 25.45 26.05 21.1 29C19.8 29.9 18.35 30.4 16.9 30.55C18 30.25 19 29.8 19.95 29.15Z" fill="white"/>
<path d="M11.8 9.95H14.6L8.95 1.5H5.5L11.8 9.95Z" fill="#DECFF1"/>
<path d="M14.6 9.95H17.4L11.8 1.5H8.94995L14.6 9.95Z" fill="#721FDD"/>
<path opacity="0.5" d="M16.45 2.8999L15.05 4.9999L18.35 9.9499H20.2L20.7 9.2499L16.45 2.8999Z" fill="#323232"/>
<path d="M17.4 9.95H20.2L14.6 1.5H11.8L17.4 9.95Z" fill="#B77FFF"/>
<path opacity="0.5" d="M15.75 16.25C14.7 16.25 13.85 17.1 13.85 18.1H12.5C12.5 18.25 12.45 18.4 12.45 18.55H14.35C14.35 17.5 15.2 16.65 16.25 16.65C16.65 16.65 17 16.8 17.3 17C16.95 16.6 16.4 16.25 15.75 16.25ZM18.7 21.4C19.5 20.7 20 19.7 20 18.6C20 17.45 19.5 16.4 18.65 15.7C19.2 16.35 19.55 17.2 19.55 18.1C19.55 19.2 19.05 20.25 18.25 20.9C19.05 21.6 19.55 22.6 19.55 23.7C19.55 25.75 17.85 27.45 15.8 27.45C14.9 27.45 14.05 27.1 13.4 26.55C14.1 27.35 15.1 27.9 16.3 27.9C18.35 27.9 20.05 26.2 20.05 24.15C19.9999 23.1 19.5 22.1 18.7 21.4Z" fill="#323232"/>
<path opacity="0.33" d="M16.25 14.8499C17.15 14.8499 18 15.1999 18.65 15.7499C17.95 14.9499 16.95 14.3999 15.75 14.3999C13.7 14.3999 12 16.0999 12 18.1499H12.5C12.75 16.2999 14.3 14.8499 16.25 14.8499ZM18.1 18.5999C18.1 17.9499 17.8 17.3999 17.3 17.0499C17.5 17.3499 17.65 17.6999 17.65 18.0999C17.65 19.1499 16.8 19.9999 15.75 19.9999V21.8999C15.9 21.8999 16.05 21.9499 16.2 21.9499V20.4999C17.25 20.4999 18.1 19.6499 18.1 18.5999ZM16.25 26.0999C17.3 26.0999 18.15 25.2499 18.15 24.1999C18.15 23.5499 17.85 22.9999 17.35 22.6499C17.55 22.9499 17.7 23.2999 17.7 23.6999C17.7 24.7499 16.85 25.5999 15.8 25.5999C15.4 25.5999 15.05 25.4499 14.75 25.2499C15.05 25.7999 15.6 26.0999 16.25 26.0999ZM13.95 24.2499C13.9 24.0999 13.9 23.9499 13.9 23.7999H12C12 24.9499 12.5 25.9999 13.35 26.6999C12.8 26.0499 12.45 25.1999 12.45 24.2999L13.95 24.2499Z" fill="white"/>
</svg>
