<svg width="32" height="33" viewBox="0 0 32 33" fill="none" xmlns="http://www.w3.org/2000/svg">
<path d="M23.05 1.5L17.4 9.95H20.2L26.5 1.5H23.05Z" fill="#B77FFF"/>
<path d="M20.2 1.5L14.6 9.95H17.4L23.05 1.5H20.2Z" fill="#721FDD"/>
<path d="M17.4 1.5L11.8 9.95H14.6L20.2 1.5H17.4Z" fill="#DECFF1"/>
<path d="M16 31.5001C21.6885 31.5001 26.3 26.8887 26.3 21.2001C26.3 15.5116 21.6885 10.9001 16 10.9001C10.3114 10.9001 5.69995 15.5116 5.69995 21.2001C5.69995 26.8887 10.3114 31.5001 16 31.5001Z" fill="#B2C1C0"/>
<path d="M10.8499 8.05005C10.5999 8.05005 10.3999 8.25005 10.3999 8.50005V12.7C10.3999 12.95 10.5999 13.15 10.8499 13.15H21.1499C21.3999 13.15 21.5999 12.95 21.5999 12.7V8.50005C21.5999 8.25005 21.3999 8.05005 21.1499 8.05005H10.8499ZM20.6999 11.35C20.6999 11.6 20.4999 11.8 20.2499 11.8H11.7999C11.5499 11.8 11.3499 11.6 11.3499 11.35V9.45005C11.3499 9.20005 11.5499 9.00005 11.7999 9.00005H20.2499C20.4999 9.00005 20.6999 9.20005 20.6999 9.45005V11.35Z" fill="#B2C1C0"/>
<path opacity="0.5" d="M7.15002 22.4C7.15002 16.8 11.45 12.25 16.95 11.85C16.7 11.85 16.4 11.8 16.15 11.8C10.9 11.8 6.65002 16.05 6.65002 21.35C6.65002 22.9 7.05002 24.4 7.70002 25.7C7.35002 24.65 7.15002 23.55 7.15002 22.4Z" fill="#444444"/>
<path opacity="0.33" d="M19.95 29.15C24.6 26.05 26 20 23.3 15.3C23.45 15.5 23.6 15.7 23.75 15.95C26.65 20.25 25.45 26.1 21.1 29.05C19.8 29.95 18.35 30.45 16.9 30.6C18 30.25 19 29.8 19.95 29.15Z" fill="white"/>
<path d="M11.8 9.95H14.6L8.95 1.5H5.5L11.8 9.95Z" fill="#DECFF1"/>
<path d="M14.6 9.95H17.4L11.8 1.5H8.94995L14.6 9.95Z" fill="#721FDD"/>
<path opacity="0.5" d="M16.45 2.8999L15.05 4.9999L18.35 9.9499H20.2L20.7 9.2499L16.45 2.8999Z" fill="#444444"/>
<path d="M17.4 9.95H20.2L14.6 1.5H11.8L17.4 9.95Z" fill="#B77FFF"/>
<path opacity="0.5" d="M15.75 16.25C14.7 16.25 13.85 17.1 13.85 18.1H12.5C12.5 18.25 12.45 18.4 12.45 18.55H14.35C14.35 17.5 15.2 16.65 16.25 16.65C16.65 16.65 17 16.8 17.3 17C16.95 16.6 16.4 16.25 15.75 16.25ZM19.5 27.5H12.5V28H20V26.1H19.5V27.5ZM15.75 21.9C14.7 21.9 13.85 22.75 13.85 23.8V25.7H14.3V24.3C14.3 23.25 15.15 22.4 16.2 22.4C18.25 22.4 19.95 20.7 19.95 18.65C19.95 17.5 19.45 16.45 18.6 15.75C19.15 16.4 19.5 17.25 19.5 18.15C19.5 20.2 17.85 21.9 15.75 21.9Z" fill="#444444"/>
<path opacity="0.33" d="M14.35 25.6499H19.5V26.0999H14.35V25.6499ZM16.25 20.4999C17.3 20.4999 18.15 19.6499 18.15 18.5999C18.15 17.9499 17.85 17.3999 17.35 17.0499C17.55 17.3499 17.7 17.6999 17.7 18.0999C17.7 19.1499 16.85 19.9999 15.8 19.9999C13.75 19.9999 12.05 21.6999 12.05 23.7499V27.4999H12.5V24.1999C12.5 22.1499 14.15 20.4999 16.25 20.4999ZM16.25 14.8499C17.15 14.8499 18 15.1999 18.65 15.7499C17.95 14.9499 16.95 14.3999 15.75 14.3999C13.7 14.3999 12 16.0999 12 18.1499H12.5C12.75 16.2999 14.3 14.8499 16.25 14.8499Z" fill="white"/>
</svg>
