<svg width="32" height="32" viewBox="0 0 32 32" fill="none" xmlns="http://www.w3.org/2000/svg">
<rect width="32" height="32" rx="16" fill="white" fill-opacity="0.07"/>
<path d="M8.74369 8.07087C8.23211 8.04539 8 8.5168 8 8.80351C8 8.96279 8.08763 9.09015 8.12789 9.15393C8.1594 9.20382 8.28776 9.34506 8.38368 9.44063L9.91842 10.9697L11.5491 12.467L14.7465 15.4615C14.9511 15.0792 15.309 14.8456 15.4582 14.7925L12.4846 11.6069L11.0138 10.046L10.2465 9.24955L9.47908 8.485C9.35119 8.35758 9.18066 8.21954 9.0954 8.16644C8.98666 8.09873 8.81829 8.07087 8.74369 8.07087Z" fill="#FCFCFC"/>
<path d="M23.9313 8.7434C23.9568 8.23202 23.4852 8 23.1984 8C23.039 8 22.9116 8.08759 22.8478 8.12785C22.7979 8.15934 22.6566 8.28765 22.561 8.38354L21.0313 9.91768L19.5335 11.5477L16.5378 14.7439C16.9203 14.9484 17.1539 15.3061 17.207 15.4553L20.3939 12.4829L21.9554 11.0127L22.7521 10.2456L23.517 9.47851C23.6445 9.35067 23.7826 9.18021 23.8357 9.09498C23.9034 8.98628 23.9313 8.81798 23.9313 8.7434Z" fill="#FCFCFC"/>
<path d="M23.2563 23.9353C23.7679 23.9608 24 23.4894 24 23.2027C24 23.0434 23.9124 22.916 23.8721 22.8522C23.8406 22.8023 23.7122 22.6611 23.6163 22.5655L22.0816 21.0364L20.4509 19.5392L17.2535 16.5447C17.0489 16.927 16.691 17.1605 16.5418 17.2136L19.5154 20.3992L20.9862 21.9602L21.7535 22.7566L22.5209 23.5212C22.6488 23.6486 22.8193 23.7866 22.9046 23.8397C23.0133 23.9074 23.1817 23.9353 23.2563 23.9353Z" fill="#FCFCFC"/>
<path d="M8.06474 23.2566C8.03924 23.768 8.51084 24 8.79765 24C8.957 24 9.08441 23.9124 9.14821 23.8722C9.19812 23.8407 9.33942 23.7123 9.43502 23.6165L10.9647 22.0823L12.4625 20.4523L15.4582 17.2561C15.0757 17.0516 14.8421 16.6939 14.789 16.5447L11.6021 19.5171L10.0406 20.9873L9.24387 21.7544L8.47903 22.5215C8.35155 22.6493 8.21346 22.8198 8.16034 22.905C8.09261 23.0137 8.06474 23.182 8.06474 23.2566Z" fill="#FCFCFC"/>
<path d="M16.8606 16.0288C16.8606 16.5215 16.4753 16.9209 16 16.9209C15.5247 16.9209 15.1394 16.5215 15.1394 16.0288C15.1394 15.5361 15.5247 15.1367 16 15.1367C16.4753 15.1367 16.8606 15.5361 16.8606 16.0288Z" fill="#FCFCFC"/>
</svg>
