<svg width="32" height="32" viewBox="0 0 32 32" fill="none" xmlns="http://www.w3.org/2000/svg">
<rect width="32" height="32" rx="16" fill="white" fill-opacity="0.07"/>
<path d="M17.6667 11.8333V11.8333C17.6667 11.3687 17.6667 11.1363 17.6283 10.9431C17.4705 10.1498 16.8503 9.52956 16.0569 9.37174C15.8637 9.33331 15.6314 9.33331 15.1667 9.33331H13.3334C11.4478 9.33331 10.5049 9.33331 9.91916 9.9191C9.33337 10.5049 9.33337 11.4477 9.33337 13.3333V15.1666C9.33337 15.6313 9.33337 15.8636 9.3718 16.0568C9.52962 16.8502 10.1498 17.4704 10.9432 17.6282C11.1364 17.6666 11.3687 17.6666 11.8334 17.6666V17.6666" stroke="#B77FFF"/>
<rect x="14.3334" y="14.3333" width="8.33333" height="8.33333" rx="2" stroke="#B77FFF"/>
</svg>
