<svg width="16" height="17" viewBox="0 0 16 17" fill="none" xmlns="http://www.w3.org/2000/svg">
<rect y="0.5" width="16" height="16" rx="8" fill="url(#paint0_linear_203_7052)"/>
<path fill-rule="evenodd" clip-rule="evenodd" d="M3.62142 8.41559C5.95359 7.3995 7.50873 6.72964 8.28685 6.40599C10.5085 5.48192 10.9702 5.3214 11.2711 5.3161C11.3373 5.31493 11.4852 5.33133 11.5811 5.40911C11.662 5.47478 11.6843 5.56349 11.6949 5.62576C11.7056 5.68802 11.7189 5.82986 11.7083 5.94069C11.5879 7.20568 11.067 10.2755 10.8019 11.6923C10.6898 12.2918 10.469 12.4928 10.2552 12.5125C9.79065 12.5552 9.43787 12.2054 8.98791 11.9105C8.2838 11.4489 7.88603 11.1616 7.20257 10.7112C6.41272 10.1907 6.92475 9.90466 7.37488 9.43713C7.49269 9.31478 9.53961 7.45294 9.57923 7.28404C9.58419 7.26292 9.58879 7.18418 9.54201 7.1426C9.49523 7.10103 9.42619 7.11525 9.37637 7.12655C9.30575 7.14258 8.18094 7.88604 6.00192 9.35693C5.68265 9.57617 5.39346 9.68299 5.13436 9.6774C4.84871 9.67122 4.29925 9.51589 3.89079 9.38311C3.38979 9.22026 2.9916 9.13416 3.02627 8.85758C3.04433 8.71352 3.24272 8.56619 3.62142 8.41559Z" fill="white"/>
<defs>
<linearGradient id="paint0_linear_203_7052" x1="8" y1="0.5" x2="8" y2="16.3813" gradientUnits="userSpaceOnUse">
<stop stop-color="#2AABEE"/>
<stop offset="1" stop-color="#229ED9"/>
</linearGradient>
</defs>
</svg>
