<svg width="25" height="24" viewBox="0 0 25 24" fill="none" xmlns="http://www.w3.org/2000/svg">
<path opacity="0.2" d="M12.5 24C19.1274 24 24.5 18.6274 24.5 12C24.5 5.37258 19.1274 0 12.5 0C5.87258 0 0.5 5.37258 0.5 12C0.5 18.6274 5.87258 24 12.5 24Z" fill="#F2C869"/>
<path fill-rule="evenodd" clip-rule="evenodd" d="M15.0978 5.53857C12.9663 5.53857 11.2378 6.13232 11.2378 6.86539V8.04266C11.4442 8.46512 12.9018 8.99943 15.0978 8.99943C17.2937 8.99943 18.7508 8.46384 18.9571 8.04266V6.86539C18.9578 6.13232 17.2299 5.53857 15.0978 5.53857Z" fill="#F2C869"/>
<path fill-rule="evenodd" clip-rule="evenodd" d="M7.17 16.0035L7.11531 15.8929V15.7612C6.88289 15.9319 6.74878 16.1217 6.74878 16.3249V17.5022C6.95516 17.9247 8.41283 18.459 10.6088 18.459C12.8047 18.459 14.2617 17.9234 14.4688 17.5022V16.8912C13.6901 17.129 12.6634 17.2683 11.5261 17.2683C9.32558 17.2657 7.53393 16.7474 7.17 16.0035Z" fill="#EFD98B"/>
<path fill-rule="evenodd" clip-rule="evenodd" d="M7.66235 15.4263V15.7695C7.86873 16.192 9.3264 16.7263 11.5223 16.7263C13.7183 16.7263 15.1753 16.1907 15.3823 15.7695V14.5923C15.3797 14.506 15.355 14.421 15.3107 14.3462V14.5303L15.256 14.6415C14.8915 15.3848 13.1031 15.9037 10.9013 15.9037C9.61611 15.9037 8.46964 15.7241 7.66235 15.4263Z" fill="#E1AB4C"/>
<path fill-rule="evenodd" clip-rule="evenodd" d="M13.7579 12.5752V11.3986C13.7579 10.6662 12.0294 10.0718 9.89792 10.0718C7.76643 10.0718 6.03857 10.6655 6.03857 11.3986V12.5759C6.2443 12.9983 7.70262 13.5326 9.89857 13.5326C12.0945 13.5326 13.5522 12.9964 13.7579 12.5752Z" fill="#FFD97A"/>
<path fill-rule="evenodd" clip-rule="evenodd" d="M14.3081 12.6045V12.6997L14.2534 12.8103C13.8889 13.5536 12.1005 14.0726 9.89866 14.0726C8.80557 14.0726 7.81274 13.9441 7.04712 13.7236V14.4075C7.2535 14.8299 8.71117 15.3642 10.9071 15.3642C13.1031 15.3642 14.5601 14.8286 14.7671 14.4075V13.2296C14.7671 13.0033 14.5998 12.7898 14.3081 12.6045V12.6045Z" fill="#FAC04A"/>
<path fill-rule="evenodd" clip-rule="evenodd" d="M11.2383 8.77246V9.61227C12.4043 9.75288 13.4564 10.0846 13.9713 10.6259C14.3203 10.6579 14.6972 10.6758 15.0983 10.6758C17.2936 10.6758 18.7512 10.1402 18.9576 9.719V8.77246C18.1523 9.27801 16.6184 9.53941 15.0976 9.53941C13.5768 9.53941 12.0436 9.27801 11.2383 8.77246Z" fill="#F4CE83"/>
<path fill-rule="evenodd" clip-rule="evenodd" d="M14.2847 11.1895C14.2996 11.2591 14.3075 11.3301 14.3075 11.401V11.9922C14.508 12.0881 14.6955 12.2089 14.8641 12.3514H15.0972C17.2925 12.3514 18.7501 11.8158 18.9565 11.3946V10.4487C18.1512 10.9549 16.618 11.2163 15.0972 11.2163C14.8263 11.215 14.5522 11.2067 14.2847 11.1895Z" fill="#FFDA7F"/>
<path fill-rule="evenodd" clip-rule="evenodd" d="M15.3166 13.2303V13.5761C15.4884 13.6924 15.6369 13.8401 15.7534 14.0101C17.5802 13.9168 18.7729 13.4464 18.9578 13.0712V12.124C18.1798 12.6123 16.7235 12.8724 15.2554 12.8891C15.2951 12.9983 15.3159 13.114 15.3166 13.2303Z" fill="#E8C278"/>
<path fill-rule="evenodd" clip-rule="evenodd" d="M15.9342 14.5922V15.6755C17.6569 15.5611 18.7786 15.1118 18.957 14.7462V13.8022C18.2988 14.2151 17.1556 14.465 15.9297 14.543C15.9316 14.5583 15.9342 14.5775 15.9342 14.5922Z" fill="#FFD166"/>
<path fill-rule="evenodd" clip-rule="evenodd" d="M15.0176 16.6869V17.4839H15.0977C17.2292 17.4839 18.957 16.8901 18.957 16.157V15.4751C18.2617 15.9116 17.0195 16.166 15.7174 16.2273C15.5169 16.4236 15.2786 16.5795 15.0176 16.6869H15.0176Z" fill="#E0C390"/>
</svg>
