<svg width="24" height="25" viewBox="0 0 24 25" fill="none" xmlns="http://www.w3.org/2000/svg">
<rect y="0.5" width="24" height="24" rx="12" fill="white" fill-opacity="0.07"/>
<path d="M12.3333 9.5L8.09486 13.7385C7.88233 13.951 7.77606 14.0573 7.70619 14.1878C7.63633 14.3184 7.60685 14.4657 7.54791 14.7605L7.14709 16.7646C7.08057 17.0972 7.0473 17.2635 7.14191 17.3581C7.23652 17.4527 7.40282 17.4194 7.73543 17.3529L7.73544 17.3529L9.73954 16.9521L9.73955 16.9521C10.0343 16.8931 10.1816 16.8637 10.3122 16.7938C10.4427 16.7239 10.549 16.6177 10.7615 16.4051L10.7615 16.4051L15 12.1667L12.3333 9.5Z" fill="#7E869E" fill-opacity="0.25"/>
<path d="M13.4945 8.50195C13.8757 8.36547 14.2992 8.38834 14.6664 8.57031L14.7543 8.61914C14.9569 8.74276 15.1403 8.93295 15.3539 9.14648L15.6888 9.49219C15.7876 9.60365 15.8708 9.71446 15.9301 9.83398L15.9984 9.99414C16.1155 10.321 16.1155 10.679 15.9984 11.0059L15.9301 11.166C15.8708 11.2855 15.7876 11.3964 15.6888 11.5078L15.3539 11.8535L10.7455 16.4619C10.6136 16.5938 10.4958 16.7146 10.3646 16.8125L10.2279 16.9023C10.1325 16.9564 10.032 16.9961 9.92517 17.0293L9.58435 17.1191L8.26306 17.4492C8.09887 17.4903 7.92039 17.5362 7.77185 17.5508C7.63643 17.564 7.41933 17.5637 7.22693 17.4229L7.14685 17.3535C6.93759 17.1443 6.93351 16.8833 6.94861 16.7285C6.96313 16.5801 7.00914 16.4014 7.05017 16.2373L7.38025 14.916L7.47107 14.5752C7.50427 14.4683 7.54398 14.3679 7.59802 14.2725L7.68787 14.1357C7.78573 14.0046 7.90656 13.8868 8.03845 13.7549L12.6469 9.14648L12.6517 9.14062L12.6576 9.13477C12.8967 8.89544 13.099 8.68695 13.3344 8.57031L13.4945 8.50195Z" stroke="#CCD2E3"/>
<path d="M12.3334 9.5L15 12.1667" stroke="#CCD2E3"/>
</svg>
