<svg width="32" height="32" viewBox="0 0 32 32" fill="none" xmlns="http://www.w3.org/2000/svg">
<path d="M23.05 1L17.4 9.45H20.2L26.5 1H23.05Z" fill="#B77FFF"/>
<path d="M20.2 1L14.6 9.45H17.4L23.05 1H20.2Z" fill="#721FDD"/>
<path d="M17.4 1L11.8 9.45H14.6L20.2 1H17.4Z" fill="#DECFF1"/>
<path d="M16 30.9999C21.6885 30.9999 26.3 26.3884 26.3 20.6999C26.3 15.0114 21.6885 10.3999 16 10.3999C10.3114 10.3999 5.69995 15.0114 5.69995 20.6999C5.69995 26.3884 10.3114 30.9999 16 30.9999Z" fill="#FFCE31"/>
<path d="M10.8499 7.5498C10.5999 7.5498 10.3999 7.7498 10.3999 7.9998V12.1998C10.3999 12.4498 10.5999 12.6498 10.8499 12.6498H21.1499C21.3999 12.6498 21.5999 12.4498 21.5999 12.1998V7.9998C21.5999 7.7498 21.3999 7.5498 21.1499 7.5498H10.8499ZM20.6999 10.8498C20.6999 11.0998 20.4999 11.2998 20.2499 11.2998H11.7999C11.5499 11.2998 11.3499 11.0998 11.3499 10.8498V8.9498C11.3499 8.6998 11.5499 8.4998 11.7999 8.4998H20.2499C20.4999 8.4998 20.6999 8.6998 20.6999 8.9498V10.8498Z" fill="#FFCE31"/>
<path opacity="0.5" d="M7.15002 21.8998C7.15002 16.2998 11.45 11.7498 16.95 11.3498C16.7 11.3498 16.4 11.2998 16.15 11.2998C10.9 11.2998 6.65002 15.5498 6.65002 20.8498C6.65002 22.3998 7.05002 23.8998 7.70002 25.1998C7.35002 24.1498 7.15002 23.0498 7.15002 21.8998Z" fill="#89664C"/>
<path opacity="0.33" d="M19.95 28.6498C24.6 25.5498 26 19.4998 23.3 14.7998L23.75 15.3998C26.65 19.6998 25.45 25.5498 21.1 28.4998C19.8 29.3998 18.35 29.8998 16.9 30.0498C18 29.7498 19 29.2998 19.95 28.6498Z" fill="white"/>
<path d="M11.8 9.45H14.6L8.95 1H5.5L11.8 9.45Z" fill="#DECFF1"/>
<path d="M14.6 9.45H17.4L11.8 1H8.94995L14.6 9.45Z" fill="#721FDD"/>
<path opacity="0.5" d="M16.45 2.3999L15.05 4.4999L18.35 9.4499H20.2L20.7 8.7499L16.45 2.3999Z" fill="#3E4347"/>
<path d="M17.4 9.45H20.2L14.6 1H11.8L17.4 9.45Z" fill="#B77FFF"/>
<path opacity="0.5" d="M13.4 17.6001V18.1001C13.9 18.1001 14.35 18.0001 14.8 17.8001V17.1001C14.4 17.4001 13.95 17.5501 13.4 17.6001ZM16.7 14.3501H17.15V25.1501H16.7V14.3501ZM18.6 25.6001V27.0001H13.4V27.5001H19.05V25.6001H18.6Z" fill="#292828"/>
<path opacity="0.33" d="M17.15 25.1499H18.55V25.5999H17.15V25.1499ZM15.3 14.3499H16.7V13.8999H14.8C14.8 14.9499 13.95 15.7999 12.9 15.7999V17.6499C13.05 17.6499 13.2 17.6499 13.35 17.5999V16.1999C14.45 16.2499 15.3 15.3999 15.3 14.3499ZM15.3 25.5999V17.5999C15.15 17.6999 15 17.7499 14.85 17.8499V25.1499H12.95V26.9999H13.4V25.5999H15.3Z" fill="white"/>
</svg>
