<svg width="25" height="24" viewBox="0 0 25 24" fill="none" xmlns="http://www.w3.org/2000/svg">
<path opacity="0.2" d="M12.5 24C19.1274 24 24.5 18.6274 24.5 12C24.5 5.37258 19.1274 0 12.5 0C5.87258 0 0.5 5.37258 0.5 12C0.5 18.6274 5.87258 24 12.5 24Z" fill="#F2C869"/>
<path d="M16.5021 13.4313C16.5021 16.0456 14.3378 18.1478 11.7234 17.9918C9.03657 17.8316 7.1975 15.2476 7.5438 12.5466C7.75338 10.9039 8.52355 9.49511 9.36187 8.40221C9.50759 8.21149 9.65716 9.74626 9.80674 9.5774C9.95674 9.40382 11.3471 6.99773 11.8305 6.15256C11.8513 6.11528 11.8799 6.08291 11.9143 6.05766C11.9487 6.0324 11.9882 6.01485 12.0299 6.00619C12.0717 5.99753 12.1149 5.99796 12.1565 6.00747C12.1981 6.01697 12.2372 6.03532 12.2711 6.06127C13.2423 6.79416 16.5021 9.54697 16.5021 13.4313Z" fill="#FF6723"/>
<path d="M15.2161 14.5074C15.2161 16.2398 13.7079 17.6322 11.8735 17.5692C9.89344 17.5024 8.53568 15.6903 8.82626 13.8238C9.24585 11.1477 11.9931 9.42822 11.9931 9.42822C11.9931 9.42822 15.2161 11.4456 15.2161 14.5074Z" fill="#FFB02E"/>
</svg>
