<svg width="32" height="29" viewBox="0 0 32 29" fill="none" xmlns="http://www.w3.org/2000/svg">
<path d="M22.7488 0H8.80476C8.50433 0 8.20809 0.0704692 7.93983 0.205746C7.60107 0.376577 7.32048 0.643899 7.13346 0.973996L0.466818 12.7406C0.160832 13.2806 0 13.8908 0 14.5115C0 15.1176 0.153359 15.7139 0.445803 16.2448L6.38976 27.0356C6.75896 27.7059 7.32213 28.2489 8.00538 28.5934C8.53546 28.8608 9.12085 29 9.71452 29H22.7179C23.3269 29 23.9221 28.8185 24.4275 28.4787C24.8323 28.2065 25.1663 27.8416 25.4016 27.4144L31.5542 16.2448C31.8466 15.7139 32 15.1176 32 14.5115C32 13.8908 31.8392 13.2806 31.5332 12.7406L25.0866 1.36239C24.7602 0.786328 24.2326 0.351058 23.6051 0.140073C23.3291 0.0473077 23.0399 0 22.7488 0Z" fill="#FCFCFC"/>
<rect x="10" y="13" width="12" height="2" fill="#2B2B2B"/>
<rect x="17" y="8" width="12" height="2" transform="rotate(90 17 8)" fill="#2B2B2B"/>
</svg>
