<svg width="33" height="32" viewBox="0 0 33 32" fill="none" xmlns="http://www.w3.org/2000/svg">
<path d="M25.7211 17.3333V22C25.7211 24.8284 25.7211 26.2426 24.8424 27.1213C23.9638 28 22.5495 28 19.7211 28H13.0544C10.226 28 8.8118 28 7.93312 27.1213C7.05444 26.2426 7.05444 24.8284 7.05444 22V10C7.05444 7.17157 7.05444 5.75736 7.93312 4.87868C8.8118 4 10.226 4 13.0544 4H16.3878" stroke="#FCFCFC" stroke-linecap="round"/>
<path d="M24.3877 4L24.3877 12" stroke="#FCFCFC" stroke-linecap="round"/>
<path d="M28.3877 8L20.3877 8" stroke="#FCFCFC" stroke-linecap="round"/>
<path d="M12.3877 17.3333L20.3877 17.3333" stroke="#FCFCFC" stroke-linecap="round"/>
<path d="M12.3877 12L17.721 12" stroke="#FCFCFC" stroke-linecap="round"/>
<path d="M12.3877 22.6667L17.721 22.6667" stroke="#FCFCFC" stroke-linecap="round"/>
</svg>
