<svg width="32" height="32" viewBox="0 0 32 32" fill="none" xmlns="http://www.w3.org/2000/svg">
<path d="M7 15.677C7 13.6465 7 12.6313 7.37248 11.7389C7.74497 10.8465 8.4445 10.1858 9.84356 8.86443L11.2007 7.58262C13.7295 5.19421 14.9939 4 16.5 4C18.0061 4 19.2705 5.19421 21.7993 7.58262L23.1564 8.86443C24.5555 10.1858 25.255 10.8465 25.6275 11.7389C26 12.6313 26 13.6465 26 15.677V22.0182C26 24.8381 26 26.248 25.205 27.124C24.41 28 23.1305 28 20.5714 28H12.4286C9.86952 28 8.58999 28 7.795 27.124C7 26.248 7 24.8381 7 22.0182V15.677Z" stroke="#FCFCFC"/>
<path d="M19.6667 28V21C19.6667 20.4477 19.219 20 18.6667 20H14C13.4477 20 13 20.4477 13 21V28" stroke="#FCFCFC" stroke-linecap="round" stroke-linejoin="round"/>
</svg>
