<svg width="43" height="42" viewBox="0 0 43 42" fill="none" xmlns="http://www.w3.org/2000/svg">
<ellipse cx="21.4984" cy="21.0123" rx="2.18737" ry="2.17493" fill="#FCFCFC"/>
<path d="M5.37454 3.08157C4.22552 3.01085 3.62693 4.0435 3.6194 4.68805C3.61522 5.04613 3.8276 5.38394 3.91642 5.52837C3.98592 5.64137 4.30891 6.02774 4.52197 6.24511L6.25209 7.98753L8.03165 9.71759L9.82356 11.46L11.6773 13.153L18.8696 19.8632C19.228 18.9858 20.056 18.4544 20.402 18.3555L13.7993 11.188L10.5278 7.67859L9.66278 6.78884L8.78536 5.8991L7.05523 4.19375C6.77116 3.90393 6.39275 3.58625 6.20253 3.46465C5.95993 3.30957 5.5422 3.08353 5.37454 3.08157Z" fill="#FCFCFC"/>
<path d="M39.3683 4.83633C39.4207 3.76152 38.4015 3.08085 37.799 3.08152C37.4658 3.08189 37.0961 3.31579 36.9606 3.40158L36.9586 3.40282C36.8538 3.46912 35.5405 4.62217 35.3399 4.82391L33.8322 6.31918L32.1639 8.02453L30.5573 9.74223L28.9631 11.4723L22.6234 18.3431C23.5009 18.7015 24.0811 19.5542 24.1553 19.9002L30.8657 13.672L32.5093 12.1273L34.1406 10.5826L35.8213 8.97612L37.4651 7.33256C37.7326 7.06358 39.0589 5.60874 39.1703 5.42949C39.3124 5.20089 39.3685 4.99306 39.3683 4.83633Z" fill="#FCFCFC"/>
<path d="M37.6495 38.6591C38.7857 38.7142 39.195 38.036 39.1942 37.399C39.1937 37.0451 38.9979 36.5971 38.9226 36.4475C38.8605 36.3239 38.4188 35.6462 38.2055 35.4341L36.7229 33.8153L34.9386 32.1482L31.273 28.8723L24.1795 22.1374C23.8335 23.0024 23.003 23.5513 22.6718 23.6697L24.3523 25.4118L26.0206 27.1913L29.2955 30.7132L32.5085 34.2037L34.2016 36.0146L35.2891 37.1268C35.5735 37.4095 36.5851 38.2561 36.7746 38.3738C37.0163 38.5239 37.4838 38.6593 37.6495 38.6591Z" fill="#FCFCFC"/>
<path d="M3.86812 37.2997C3.92987 38.3501 4.43836 38.5822 5.07788 38.5972C5.43317 38.6055 5.73283 38.4984 5.89348 38.4242C6.01335 38.3689 6.52795 38.1408 6.74619 37.9299L8.41453 36.4841L10.0952 34.6428L13.5184 30.8614L16.9416 27.2282L20.3753 23.6825C19.5334 23.2019 18.9457 22.4195 18.8351 22.0808L17.1517 23.7681L15.3474 25.4611L11.7883 28.7729L8.26625 32.0353L6.37547 33.8148L5.4887 34.6552L4.79665 35.4955C4.56185 35.8292 4.31358 36.2024 4.20046 36.3976C4.04281 36.6695 3.85858 37.139 3.86812 37.2997Z" fill="#FCFCFC"/>
<path d="M7.41679 26.1777C7.41679 25.6126 7.41679 25.0688 7.41679 24.5465C7.41679 24.0241 7.41679 23.4495 7.41679 22.8226V19.4176C7.41679 18.7765 7.41679 18.1924 7.41679 17.6653C7.41679 17.1334 7.41679 16.5849 7.41679 16.0198H8.68478C8.68478 16.5849 8.68478 17.1334 8.68478 17.6653C8.68478 18.1924 8.68478 18.7765 8.68478 19.4176V22.8226C8.68478 23.4495 8.68478 24.0241 8.68478 24.5465C8.68478 25.0688 8.68478 25.6126 8.68478 26.1777H7.41679ZM0.775635 26.1777C0.775635 25.6126 0.775635 25.0688 0.775635 24.5465C0.775635 24.0241 0.775635 23.4495 0.775635 22.8226V19.4176C0.775635 18.7765 0.775635 18.1924 0.775635 17.6653C0.775635 17.1334 0.775635 16.5849 0.775635 16.0198H2.04362C2.04362 16.5849 2.04362 17.1334 2.04362 17.6653C2.04362 18.1924 2.04362 18.7765 2.04362 19.4176V22.8226C2.04362 23.4495 2.04362 24.0241 2.04362 24.5465C2.04362 25.0688 2.04362 25.6126 2.04362 26.1777H0.775635ZM1.60228 21.5903V20.479H7.90017V21.5903H1.60228Z" fill="#FCFCFC"/>
<path d="M17.5588 41.8226C17.734 41.2765 17.9155 40.7019 18.1032 40.0987C18.2951 39.4956 18.4787 38.9234 18.6539 38.382L19.7614 34.8916C19.9574 34.2647 20.1368 33.6996 20.2995 33.1962C20.4622 32.6881 20.6249 32.1776 20.7876 31.6647H22.2768C22.4395 32.1871 22.6001 32.6999 22.7586 33.2033C22.9171 33.7067 23.0944 34.2718 23.2905 34.8987L24.3917 38.3963C24.5669 38.9566 24.7463 39.5336 24.9299 40.1272C25.1176 40.7161 25.297 41.2812 25.468 41.8226H24.2916C24.1122 41.229 23.9266 40.6188 23.7347 39.9919C23.547 39.3603 23.3697 38.7667 23.2029 38.2111L21.576 32.8258H21.4696L19.8302 38.1612C19.6508 38.7406 19.4652 39.3484 19.2733 39.9848C19.0814 40.6164 18.8916 41.229 18.7039 41.8226H17.5588ZM19.2107 39.2724L19.3109 38.2609H23.8286L23.9099 39.2724H19.2107Z" fill="#FCFCFC"/>
<path d="M34.3154 26.178C34.3154 25.6374 34.3154 25.1173 34.3154 24.6177C34.3154 24.118 34.3154 23.5684 34.3154 22.9688V19.712C34.3154 19.0987 34.3154 18.54 34.3154 18.0358C34.3154 17.5271 34.3154 17.0024 34.3154 16.4619H35.5456C35.5456 17.007 35.5456 17.5339 35.5456 18.0426C35.5456 18.5468 35.5456 19.1033 35.5456 19.712V24.0658H35.6498L37.8043 21.0815C38.3372 20.3456 38.8793 19.5961 39.4307 18.833C39.982 18.0654 40.5519 17.275 41.1404 16.4619H42.2246C42.2246 17.0024 42.2246 17.5271 42.2246 18.0358C42.2246 18.54 42.2246 19.0987 42.2246 19.712V22.9688C42.2246 23.5684 42.2246 24.118 42.2246 24.6177C42.2246 25.1173 42.2246 25.6374 42.2246 26.178H40.9944C40.9944 25.6374 40.9944 25.1173 40.9944 24.6177C40.9944 24.1135 40.9944 23.5616 40.9944 22.962V18.5673H40.8902L38.7357 21.5448C38.0824 22.4487 37.4846 23.2754 36.9425 24.0249C36.4004 24.7744 35.8815 25.4921 35.3857 26.178H34.3154ZM38.2353 15.4263C37.6607 15.4263 37.1835 15.3309 36.8035 15.1401C36.4282 14.9448 36.1456 14.6813 35.9556 14.3497C35.7703 14.0181 35.6753 13.6388 35.6707 13.2119L36.6367 13.1778C36.6367 13.6457 36.7734 14.0113 37.0468 14.2748C37.3202 14.5382 37.7163 14.67 38.2353 14.67C38.7681 14.67 39.1666 14.5405 39.4307 14.2816C39.6948 14.0227 39.8268 13.6661 39.8268 13.2119H40.7929C40.7929 13.6388 40.7002 14.0181 40.5149 14.3497C40.3342 14.6813 40.0562 14.9448 39.6809 15.1401C39.3056 15.3309 38.8237 15.4263 38.2353 15.4263Z" fill="#FCFCFC"/>
<path d="M19.7896 10.3354C19.9755 9.90802 20.1656 9.47112 20.36 9.02472C20.5543 8.57832 20.7571 8.10818 20.9684 7.61429L18.9024 3.1052C18.6785 2.61606 18.463 2.14829 18.256 1.70189C18.0532 1.25549 17.8208 0.74736 17.5588 0.17749H18.8517C19.0418 0.614391 19.2108 1.0038 19.3587 1.34572C19.5108 1.68765 19.6502 2.0082 19.7769 2.30738C19.9079 2.60181 20.0368 2.89625 20.1635 3.19068C20.2903 3.48036 20.4276 3.79617 20.5755 4.13809L21.5388 6.32496H21.6465L22.5464 4.18083C22.6943 3.82466 22.8316 3.49461 22.9584 3.19068C23.0851 2.88675 23.2097 2.58757 23.3323 2.29313C23.459 1.99395 23.5942 1.6734 23.7379 1.33148C23.8815 0.989555 24.0421 0.604893 24.2195 0.17749H25.468C25.2018 0.790101 24.923 1.42883 24.6314 2.09368C24.3399 2.75853 24.0737 3.36639 23.8329 3.91726L22.426 7.1299C22.2148 7.61904 21.9845 8.14617 21.7352 8.71129C21.4859 9.27641 21.2493 9.81779 21.0254 10.3354H19.7896Z" fill="#FCFCFC"/>
</svg>
