<svg width="43" height="42" viewBox="0 0 43 42" fill="none" xmlns="http://www.w3.org/2000/svg">
<ellipse cx="21.4984" cy="21.0123" rx="2.18737" ry="2.17493" fill="#C19BF2"/>
<path d="M5.37454 3.08163C4.22552 3.01091 3.62693 4.04357 3.6194 4.68811C3.61522 5.04619 3.8276 5.384 3.91642 5.52843C3.98592 5.64143 4.30891 6.0278 4.52197 6.24517L6.25209 7.98759L8.03165 9.71765L9.82356 11.4601L11.6773 13.1531L18.8696 19.8632C19.228 18.9858 20.056 18.4545 20.402 18.3556L13.7993 11.188L10.5278 7.67865L9.66278 6.7889L8.78536 5.89916L7.05523 4.19381C6.77116 3.90399 6.39275 3.58631 6.20253 3.46471C5.95993 3.30963 5.5422 3.08359 5.37454 3.08163Z" fill="#C19BF2"/>
<path d="M39.3683 4.83639C39.4207 3.76158 38.4015 3.08091 37.799 3.08158C37.4658 3.08195 37.0961 3.31586 36.9606 3.40164L36.9586 3.40288C36.8538 3.46919 35.5405 4.62223 35.3399 4.82397L33.8322 6.31924L32.1639 8.02459L30.5573 9.74229L28.9631 11.4724L22.6234 18.3432C23.5009 18.7015 24.0811 19.5543 24.1553 19.9003L30.8657 13.6721L32.5093 12.1274L34.1406 10.5827L35.8213 8.97618L37.4651 7.33262C37.7326 7.06364 39.0589 5.6088 39.1703 5.42955C39.3124 5.20095 39.3685 4.99313 39.3683 4.83639Z" fill="#C19BF2"/>
<path d="M37.6495 38.6591C38.7857 38.7142 39.195 38.036 39.1942 37.399C39.1937 37.0451 38.9979 36.5971 38.9226 36.4475C38.8605 36.3239 38.4188 35.6462 38.2055 35.4341L36.7229 33.8153L34.9386 32.1482L31.273 28.8723L24.1795 22.1374C23.8335 23.0024 23.003 23.5513 22.6718 23.6697L24.3523 25.4118L26.0206 27.1913L29.2955 30.7132L32.5085 34.2037L34.2016 36.0146L35.2891 37.1268C35.5735 37.4095 36.5851 38.2561 36.7746 38.3738C37.0163 38.5239 37.4838 38.6593 37.6495 38.6591Z" fill="#C19BF2"/>
<path d="M3.86812 37.2997C3.92987 38.3501 4.43836 38.5822 5.07788 38.5972C5.43317 38.6055 5.73283 38.4984 5.89348 38.4242C6.01335 38.3689 6.52795 38.1408 6.74619 37.9299L8.41453 36.4841L10.0952 34.6428L13.5184 30.8614L16.9416 27.2282L20.3753 23.6825C19.5334 23.2019 18.9457 22.4195 18.8351 22.0808L17.1517 23.7681L15.3474 25.4611L11.7883 28.7729L8.26625 32.0353L6.37547 33.8148L5.4887 34.6552L4.79665 35.4955C4.56185 35.8292 4.31358 36.2024 4.20046 36.3976C4.04281 36.6695 3.85858 37.139 3.86812 37.2997Z" fill="#C19BF2"/>
<path d="M7.41679 26.1777C7.41679 25.6126 7.41679 25.0688 7.41679 24.5465C7.41679 24.0241 7.41679 23.4495 7.41679 22.8226V19.4176C7.41679 18.7765 7.41679 18.1924 7.41679 17.6653C7.41679 17.1334 7.41679 16.5849 7.41679 16.0198H8.68478C8.68478 16.5849 8.68478 17.1334 8.68478 17.6653C8.68478 18.1924 8.68478 18.7765 8.68478 19.4176V22.8226C8.68478 23.4495 8.68478 24.0241 8.68478 24.5465C8.68478 25.0688 8.68478 25.6126 8.68478 26.1777H7.41679ZM0.775635 26.1777C0.775635 25.6126 0.775635 25.0688 0.775635 24.5465C0.775635 24.0241 0.775635 23.4495 0.775635 22.8226V19.4176C0.775635 18.7765 0.775635 18.1924 0.775635 17.6653C0.775635 17.1334 0.775635 16.5849 0.775635 16.0198H2.04362C2.04362 16.5849 2.04362 17.1334 2.04362 17.6653C2.04362 18.1924 2.04362 18.7765 2.04362 19.4176V22.8226C2.04362 23.4495 2.04362 24.0241 2.04362 24.5465C2.04362 25.0688 2.04362 25.6126 2.04362 26.1777H0.775635ZM1.60228 21.5903V20.479H7.90017V21.5903H1.60228Z" fill="#C19BF2"/>
<path d="M17.5588 41.8225C17.734 41.2764 17.9155 40.7017 18.1032 40.0986C18.2951 39.4955 18.4787 38.9233 18.6539 38.3819L19.7614 34.8914C19.9574 34.2646 20.1368 33.6995 20.2995 33.1961C20.4622 32.6879 20.6249 32.1774 20.7876 31.6646H22.2768C22.4395 32.1869 22.6001 32.6998 22.7586 33.2032C22.9171 33.7066 23.0944 34.2717 23.2905 34.8986L24.3917 38.3961C24.5669 38.9565 24.7463 39.5335 24.9299 40.1271C25.1176 40.716 25.297 41.2811 25.468 41.8225H24.2916C24.1122 41.2289 23.9266 40.6186 23.7347 39.9918C23.547 39.3602 23.3697 38.7666 23.2029 38.2109L21.576 32.8257H21.4696L19.8302 38.1611C19.6508 38.7404 19.4652 39.3483 19.2733 39.9847C19.0814 40.6163 18.8916 41.2289 18.7039 41.8225H17.5588ZM19.2107 39.2723L19.3109 38.2608H23.8286L23.9099 39.2723H19.2107Z" fill="#C19BF2"/>
<path d="M34.3154 26.1779C34.3154 25.6374 34.3154 25.1173 34.3154 24.6176C34.3154 24.118 34.3154 23.5683 34.3154 22.9687V19.7119C34.3154 19.0987 34.3154 18.54 34.3154 18.0358C34.3154 17.527 34.3154 17.0024 34.3154 16.4618H35.5456C35.5456 17.0069 35.5456 17.5338 35.5456 18.0426C35.5456 18.5468 35.5456 19.1032 35.5456 19.7119V24.0657H35.6498L37.8043 21.0814C38.3372 20.3455 38.8793 19.5961 39.4307 18.8329C39.982 18.0653 40.5519 17.2749 41.1404 16.4618H42.2246C42.2246 17.0024 42.2246 17.527 42.2246 18.0358C42.2246 18.54 42.2246 19.0987 42.2246 19.7119V22.9687C42.2246 23.5683 42.2246 24.118 42.2246 24.6176C42.2246 25.1173 42.2246 25.6374 42.2246 26.1779H40.9944C40.9944 25.6374 40.9944 25.1173 40.9944 24.6176C40.9944 24.1134 40.9944 23.5615 40.9944 22.9619V18.5672H40.8902L38.7357 21.5447C38.0824 22.4487 37.4846 23.2754 36.9425 24.0248C36.4004 24.7743 35.8815 25.492 35.3857 26.1779H34.3154ZM38.2353 15.4262C37.6607 15.4262 37.1835 15.3308 36.8035 15.14C36.4282 14.9447 36.1456 14.6812 35.9556 14.3497C35.7703 14.0181 35.6753 13.6388 35.6707 13.2118L36.6367 13.1777C36.6367 13.6456 36.7734 14.0113 37.0468 14.2747C37.3202 14.5382 37.7163 14.6699 38.2353 14.6699C38.7681 14.6699 39.1666 14.5404 39.4307 14.2815C39.6948 14.0226 39.8268 13.666 39.8268 13.2118H40.7929C40.7929 13.6388 40.7002 14.0181 40.5149 14.3497C40.3342 14.6812 40.0562 14.9447 39.6809 15.14C39.3056 15.3308 38.8237 15.4262 38.2353 15.4262Z" fill="#C19BF2"/>
<path d="M19.7896 10.3354C19.9755 9.90802 20.1656 9.47112 20.36 9.02472C20.5543 8.57832 20.7571 8.10818 20.9684 7.61429L18.9024 3.1052C18.6785 2.61606 18.463 2.14829 18.256 1.70189C18.0532 1.25549 17.8208 0.74736 17.5588 0.17749H18.8517C19.0418 0.614391 19.2108 1.0038 19.3587 1.34572C19.5108 1.68765 19.6502 2.0082 19.7769 2.30738C19.9079 2.60181 20.0368 2.89625 20.1635 3.19068C20.2903 3.48036 20.4276 3.79617 20.5755 4.13809L21.5388 6.32496H21.6465L22.5464 4.18083C22.6943 3.82466 22.8316 3.49461 22.9584 3.19068C23.0851 2.88675 23.2097 2.58757 23.3323 2.29313C23.459 1.99395 23.5942 1.6734 23.7379 1.33148C23.8815 0.989555 24.0421 0.604893 24.2195 0.17749H25.468C25.2018 0.790101 24.923 1.42883 24.6314 2.09368C24.3399 2.75853 24.0737 3.36639 23.8329 3.91726L22.426 7.1299C22.2148 7.61904 21.9845 8.14617 21.7352 8.71129C21.4859 9.27641 21.2493 9.81779 21.0254 10.3354H19.7896Z" fill="#C19BF2"/>
</svg>
