<svg width="33" height="32" viewBox="0 0 33 32" fill="none" xmlns="http://www.w3.org/2000/svg">
<circle cx="15.7782" cy="10.3335" r="5" stroke="#C19BF2" stroke-linecap="round"/>
<path fill-rule="evenodd" clip-rule="evenodd" d="M21.7664 22.0002C21.5178 21.8893 21.2633 21.7857 21.0034 21.6896C19.0372 20.9624 16.8345 20.6907 14.6708 20.9044C12.5074 21.118 10.4652 21.8087 8.8044 22.901C7.14352 23.9935 5.92663 25.4475 5.33812 27.0947C5.24522 27.3548 5.38071 27.6409 5.64075 27.7338C5.9008 27.8267 6.18692 27.6912 6.27983 27.4312C6.78337 26.0217 7.84254 24.7306 9.35392 23.7365C10.8654 22.7424 12.7492 22.099 14.769 21.8995C15.9964 21.7783 17.2351 21.825 18.4261 22.0312C18.5406 22.0108 18.6585 22.0002 18.7789 22.0002L21.7664 22.0002Z" fill="#C19BF2"/>
<path d="M24.1122 18.6665L24.1122 29.3332" stroke="#C19BF2" stroke-linecap="round"/>
<path d="M29.4456 24L18.7789 24" stroke="#C19BF2" stroke-linecap="round"/>
</svg>
