<svg width="33" height="32" viewBox="0 0 33 32" fill="none" xmlns="http://www.w3.org/2000/svg">
<circle cx="15.7782" cy="10.3333" r="5" stroke="#FCFCFC" stroke-linecap="round"/>
<path fill-rule="evenodd" clip-rule="evenodd" d="M21.7664 21.9999C21.5178 21.8891 21.2633 21.7855 21.0034 21.6893C19.0372 20.9621 16.8345 20.6905 14.6708 20.9041C12.5074 21.1177 10.4652 21.8085 8.8044 22.9008C7.14352 23.9932 5.92663 25.4472 5.33812 27.0945C5.24522 27.3545 5.38071 27.6407 5.64075 27.7336C5.9008 27.8265 6.18692 27.691 6.27983 27.4309C6.78337 26.0215 7.84254 24.7304 9.35392 23.7363C10.8654 22.7421 12.7492 22.0987 14.769 21.8993C15.9964 21.7781 17.2351 21.8247 18.4261 22.0309C18.5406 22.0106 18.6585 21.9999 18.7789 21.9999L21.7664 21.9999Z" fill="#FCFCFC"/>
<path d="M24.1122 18.6667L24.1122 29.3334" stroke="#FCFCFC" stroke-linecap="round"/>
<path d="M29.4456 24L18.7789 24" stroke="#FCFCFC" stroke-linecap="round"/>
</svg>
