<svg width="11" height="16" viewBox="0 0 11 16" fill="none" xmlns="http://www.w3.org/2000/svg">
<g clip-path="url(#clip0_2007_4473)">
<path d="M11 10.305C11 13.45 8.53646 16 5.5 16C2.46354 16 0 13.45 0 10.305C0 6.94751 3.61625 1.88501 4.98438 0.092512C5.01324 0.0488564 5.05426 0.0165309 5.10131 0.000342664C5.14837 -0.0158455 5.19896 -0.0150318 5.24556 0.00266294C5.29216 0.0203577 5.33229 0.0539882 5.35996 0.0985533C5.38764 0.143118 5.40139 0.196238 5.39917 0.250012C5.28229 1.75001 5.3625 4.96001 7.82375 6.56001C7.87299 6.59641 7.93327 6.61051 7.99186 6.59931C8.05044 6.58811 8.10275 6.55251 8.13771 6.50001C8.44619 6.00425 8.6245 5.42588 8.65333 4.82751C8.65602 4.77255 8.67525 4.7201 8.70805 4.67828C8.74084 4.63646 8.78537 4.60762 8.83473 4.59623C8.88408 4.58483 8.9355 4.59152 8.98102 4.61526C9.02653 4.639 9.0636 4.67845 9.08646 4.72751C10.1338 6.60751 11 8.66001 11 10.305Z" fill="#FF7F00"/>
<path d="M2.0625 12.4402C2.0625 14.4077 3.6025 16.0002 5.5 16.0002C7.3975 16.0002 8.9375 14.4077 8.9375 12.4402C8.9375 10.4727 6.94604 7.56274 5.995 6.28774C5.96651 6.2429 5.92535 6.20947 5.87781 6.19253C5.83027 6.17559 5.77896 6.17608 5.7317 6.19393C5.68445 6.21178 5.64384 6.24599 5.61607 6.29137C5.5883 6.33674 5.5749 6.39078 5.57792 6.44524C5.61229 7.44524 5.45187 9.13774 4.12271 10.0577C4.09689 10.0764 4.06787 10.0891 4.03741 10.0952C4.00695 10.1013 3.97567 10.1006 3.94547 10.0931C3.91527 10.0856 3.88677 10.0715 3.8617 10.0517C3.83662 10.0319 3.81549 10.0067 3.79958 9.97774C3.68406 9.76193 3.60635 9.52456 3.57042 9.27774C3.56519 9.22342 3.5438 9.17246 3.50951 9.13265C3.47523 9.09285 3.42994 9.06639 3.38056 9.05731C3.33119 9.04824 3.28045 9.05706 3.23611 9.08242C3.19176 9.10778 3.15625 9.14828 3.135 9.19774C2.53229 10.3052 2.0625 11.4827 2.0625 12.4402Z" fill="#FFDA00"/>
<path d="M7.39062 14.0423C7.38559 14.3067 7.33255 14.5674 7.23456 14.8093C7.13657 15.0512 6.99558 15.2694 6.81976 15.4515C6.64393 15.6335 6.43676 15.7757 6.21022 15.8698C5.98369 15.964 5.74229 16.0082 5.5 15.9998C5.25771 16.0082 5.01631 15.964 4.78978 15.8698C4.56324 15.7757 4.35607 15.6335 4.18024 15.4515C4.00442 15.2694 3.86343 15.0512 3.76544 14.8093C3.66745 14.5674 3.61441 14.3067 3.60938 14.0423C3.60937 13.0748 4.48021 11.6998 5.04167 10.9148C5.06908 10.8719 5.10816 10.8394 5.1534 10.8219C5.19865 10.8045 5.24778 10.803 5.29385 10.8176C5.33993 10.8322 5.38063 10.8623 5.41021 10.9035C5.4398 10.9447 5.45678 10.995 5.45875 11.0473C5.45963 11.3518 5.52164 11.6524 5.64041 11.928C5.75918 12.2035 5.93184 12.4474 6.14625 12.6423C6.17426 12.6686 6.2077 12.6872 6.2437 12.6963C6.2797 12.7055 6.31719 12.705 6.35299 12.695C6.38879 12.6849 6.42182 12.6655 6.44927 12.6385C6.47672 12.6115 6.49777 12.5776 6.51063 12.5398C6.52431 12.4927 6.55048 12.4511 6.58582 12.4202C6.62117 12.3894 6.66411 12.3706 6.70922 12.3663C6.75434 12.362 6.7996 12.3724 6.8393 12.3962C6.879 12.42 6.91136 12.456 6.93229 12.4998C7.1931 12.968 7.35005 13.4962 7.39062 14.0423Z" fill="white"/>
</g>
<defs>
<clipPath id="clip0_2007_4473">
<rect width="11" height="16" fill="white"/>
</clipPath>
</defs>
</svg>
