<svg width="34" height="34" viewBox="0 0 34 34" fill="none" xmlns="http://www.w3.org/2000/svg">
<path d="M14.9574 15.8257C15.3744 16.0037 15.385 16.6784 14.9706 16.8696C13.6053 17.5045 6.9833 20.1607 6.9833 29.8295L6.9408 31.6145L27.0619 31.649L27.0486 29.8481C27.0486 19.9934 20.3867 17.547 19.0135 16.9068C18.6017 16.7156 18.6097 16.0409 19.0267 15.8629C20.3894 15.2785 26.8972 12.5028 26.8972 3.80619L27.0645 2.29213L6.9408 2.26025L7.11611 3.84604C7.11611 12.2717 13.5894 15.2387 14.9574 15.8257Z" fill="url(#paint0_linear_2007_2730)"/>
<path d="M25.4601 29.033C24.9687 26.7301 24.1532 25.2346 22.0575 25.2346H17.741L17.7384 16.1104C17.7384 13.7384 23.8239 13.0504 23.8239 9.7168L10.2903 9.72477C10.2903 12.9388 16.3332 13.7835 16.3332 16.1343L16.3412 25.2346H12.1231C10.0114 25.2346 9.18792 26.754 8.71246 29.0809L8.13074 31.8593L26.0764 31.9071L25.4601 29.033Z" fill="url(#paint1_linear_2007_2730)"/>
<g opacity="0.2">
<path d="M7.83064 3.05979L26.172 3.089L26.1003 3.71854C26.0977 3.74775 26.095 3.77697 26.095 3.80619C26.095 9.13729 23.545 13.0526 18.708 15.1298C18.2299 15.3343 17.9164 15.8204 17.9085 16.3676C17.9005 16.9148 18.2006 17.4115 18.6735 17.6293C18.7452 17.6638 18.8302 17.701 18.9285 17.7435C20.74 18.5484 26.2491 21.0001 26.2491 29.8534L26.257 30.8495L7.75627 30.8176L7.78017 29.8481C7.78017 29.8428 7.78017 29.8348 7.78017 29.8295C7.78017 26.0735 8.81611 23.0056 10.8641 20.7106C12.4977 18.8724 14.3438 18.0304 15.1327 17.6718C15.1964 17.6426 15.2549 17.616 15.308 17.5921C15.7808 17.3717 16.081 16.8776 16.073 16.3304C16.065 15.7832 15.7516 15.2998 15.2735 15.0926C13.0608 14.1417 7.91298 11.1428 7.91298 3.84604C7.91298 3.81682 7.91033 3.7876 7.90767 3.75838L7.83064 3.05979ZM6.9408 2.26025L7.11611 3.84604C7.11611 12.2717 13.5894 15.2387 14.9574 15.8257C15.3744 16.0037 15.385 16.6784 14.9706 16.8696C13.6053 17.5045 6.9833 20.1607 6.9833 29.8295L6.9408 31.6145L27.0592 31.649L27.046 29.8481C27.046 19.9934 20.3841 17.547 19.0108 16.9068C18.5991 16.7156 18.607 16.0409 19.0241 15.8629C20.3867 15.2785 26.8945 12.5028 26.8945 3.80619L27.0619 2.29213L6.9408 2.26025Z" fill="#424242"/>
</g>
<path d="M6.64594 1.0625H27.3541C28.2386 1.0625 28.9531 1.77969 28.9531 2.66156C28.9531 3.54609 28.2359 4.26063 27.3541 4.26063H6.64594C5.76141 4.26063 5.04688 3.54344 5.04688 2.66156C5.04688 1.77969 5.76406 1.0625 6.64594 1.0625Z" fill="#795548"/>
<g opacity="0.2">
<path d="M27.3541 1.85938C27.7977 1.85938 28.1562 2.22063 28.1562 2.66156C28.1562 3.10516 27.795 3.46375 27.3541 3.46375H6.64594C6.20234 3.46375 5.84375 3.1025 5.84375 2.66156C5.84375 2.22063 6.205 1.85938 6.64594 1.85938H27.3541ZM27.3541 1.0625H6.64594C5.76406 1.0625 5.04688 1.77969 5.04688 2.66156C5.04688 3.54609 5.76406 4.26063 6.64594 4.26063H27.3541C28.2386 4.26063 28.9531 3.54344 28.9531 2.66156C28.9531 1.77969 28.2359 1.0625 27.3541 1.0625Z" fill="#424242"/>
</g>
<g opacity="0.2">
<path d="M23.2235 10.2556C22.8968 11.4536 21.4943 12.2637 20.129 13.0473C18.6256 13.9132 17.2071 14.7314 17.2071 16.1232L17.2098 25.2475C17.2098 25.5396 17.4489 25.7654 17.741 25.7654H22.0575C23.6353 25.7654 24.4162 26.6898 24.9395 29.1468L25.4203 31.3754L8.78683 31.3329L9.23574 29.1867C9.73511 26.7323 10.5453 25.7654 12.1231 25.7654H16.3412C16.482 25.7654 16.6175 25.7229 16.7157 25.622C16.8167 25.5211 16.8725 25.3936 16.8725 25.2528L16.8645 16.1445C16.8645 14.7606 15.4434 13.9132 13.9373 13.0154C12.6039 12.2186 11.2306 11.4004 10.8985 10.2582L23.2235 10.2556ZM23.8239 9.72168L10.2903 9.72699C10.2903 12.9411 16.3332 13.7857 16.3332 16.1339L16.3412 25.2342H12.1231C10.0114 25.2342 9.18792 26.7536 8.71246 29.0804L8.13074 31.8589L26.0764 31.912L25.4575 29.0326C24.9687 26.7297 24.1532 25.2342 22.0575 25.2342H17.741L17.7384 16.11C17.7384 13.7379 23.8239 13.0579 23.8239 9.72168Z" fill="#424242"/>
</g>
<path d="M6.60347 29.8325H27.3966C28.2546 29.8325 28.9505 30.5285 28.9505 31.3864C28.9505 32.2444 28.2546 32.9403 27.3966 32.9403H6.60347C5.7455 32.9403 5.04956 32.2444 5.04956 31.3864C5.04956 30.5258 5.7455 29.8325 6.60347 29.8325Z" fill="#795548"/>
<g opacity="0.2">
<path d="M27.3966 30.6294C27.8136 30.6294 28.1536 30.9694 28.1536 31.3864C28.1536 31.8035 27.8136 32.1435 27.3966 32.1435H6.60347C6.18644 32.1435 5.84644 31.8035 5.84644 31.3864C5.84644 30.9694 6.18644 30.6294 6.60347 30.6294H27.3966ZM27.3966 29.8325H6.60347C5.7455 29.8325 5.04956 30.5285 5.04956 31.3864C5.04956 32.2444 5.7455 32.9403 6.60347 32.9403H27.3966C28.2546 32.9403 28.9505 32.2444 28.9505 31.3864C28.9505 30.5285 28.2546 29.8325 27.3966 29.8325Z" fill="#424242"/>
</g>
<defs>
<linearGradient id="paint0_linear_2007_2730" x1="22.1001" y1="29.6567" x2="12.3606" y2="5.39625" gradientUnits="userSpaceOnUse">
<stop offset="0.00219228" stop-color="#BBDEFB"/>
<stop offset="1" stop-color="#E3F2FD"/>
</linearGradient>
<linearGradient id="paint1_linear_2007_2730" x1="17.1049" y1="10.1825" x2="17.1049" y2="30.3378" gradientUnits="userSpaceOnUse">
<stop stop-color="#FFCA7B"/>
<stop offset="0.2539" stop-color="#FFA726"/>
<stop offset="0.4688" stop-color="#FFCC80"/>
<stop offset="0.6586" stop-color="#FFC875"/>
<stop offset="0.8665" stop-color="#FFA726"/>
</linearGradient>
</defs>
</svg>
