<svg width="16" height="17" viewBox="0 0 16 17" fill="none" xmlns="http://www.w3.org/2000/svg">
<path d="M8 14.5C9.38813 14.5 10.7333 14.0187 11.8064 13.1381C12.8794 12.2574 13.6139 11.032 13.8847 9.67054C14.1555 8.30908 13.9459 6.89584 13.2915 5.67162C12.6372 4.4474 11.5786 3.48794 10.2961 2.95672C9.01364 2.42551 7.58665 2.3554 6.25829 2.75836C4.92993 3.16131 3.78239 4.01239 3.01118 5.16658C2.23998 6.32077 1.89283 7.70665 2.02889 9.0881C2.16495 10.4695 2.7758 11.7611 3.75736 12.7426" stroke="#00B123" stroke-width="1.5" stroke-linecap="round"/>
<path d="M10.6667 7.16666L8.7354 9.4842C8.07983 10.2709 7.75204 10.6642 7.31147 10.6842C6.8709 10.7042 6.50885 10.3422 5.78474 9.61805L5.33335 9.16666" stroke="#00B123" stroke-width="1.5" stroke-linecap="round"/>
</svg>
