<svg width="24" height="24" viewBox="0 0 24 24" fill="none" xmlns="http://www.w3.org/2000/svg">
<circle cx="12" cy="12" r="8" fill="#7E869E" fill-opacity="0.25"/>
<path d="M15.5344 11.8469C15.7895 11.8358 16.008 12.0342 15.9896 12.2889C15.9352 13.0393 15.6699 13.7627 15.2198 14.3734C14.6778 15.1087 13.9004 15.6363 13.017 15.8686C12.1335 16.1008 11.1972 16.0237 10.3637 15.65C9.53015 15.2763 8.84962 14.6286 8.43524 13.8145C8.02087 13.0005 7.89761 12.0691 8.08595 11.1752C8.27429 10.2814 8.7629 9.47897 9.47053 8.90132C10.1782 8.32368 11.0622 8.00564 11.9756 8.00007C12.7343 7.99545 13.4753 8.20661 14.114 8.60429C14.3308 8.73923 14.3626 9.03266 14.2036 9.2324C14.0445 9.43213 13.755 9.46163 13.5337 9.3343C13.064 9.06406 12.5286 8.9213 11.9813 8.92464C11.279 8.92891 10.5993 9.17344 10.0552 9.61757C9.51114 10.0617 9.13547 10.6787 8.99066 11.3659C8.84585 12.0531 8.94062 12.7692 9.25922 13.3951C9.57781 14.021 10.101 14.519 10.7419 14.8063C11.3828 15.0936 12.1027 15.1529 12.7819 14.9744C13.4612 14.7958 14.0588 14.3901 14.4755 13.8248C14.8003 13.3842 14.9999 12.8673 15.0578 12.3285C15.0851 12.0747 15.2793 11.8579 15.5344 11.8469Z" fill="#D0D0D0"/>
<path d="M14 12H12.25C12.1119 12 12 11.8881 12 11.75V11" stroke="#FCFCFC" stroke-width="0.3" stroke-linecap="round"/>
</svg>
