<svg width="48" height="48" viewBox="0 0 48 48" fill="none" xmlns="http://www.w3.org/2000/svg">
<circle cx="24" cy="24" r="24" fill="#195077" fill-opacity="0.19"/>
<path d="M8.90767 33V15.5455H15.8963C17.1804 15.5455 18.2514 15.7358 19.1094 16.1165C19.9673 16.4972 20.6122 17.0256 21.044 17.7017C21.4759 18.3722 21.6918 19.1449 21.6918 20.0199C21.6918 20.7017 21.5554 21.3011 21.2827 21.8182C21.0099 22.3295 20.6349 22.75 20.1577 23.0795C19.6861 23.4034 19.1463 23.6335 18.5384 23.7699V23.9403C19.2031 23.9687 19.8253 24.1562 20.4048 24.5028C20.9901 24.8494 21.4645 25.3352 21.8281 25.9602C22.1918 26.5795 22.3736 27.3182 22.3736 28.1761C22.3736 29.1023 22.1435 29.929 21.6832 30.6562C21.2287 31.3778 20.5554 31.9489 19.6634 32.3693C18.7713 32.7898 17.6719 33 16.3651 33H8.90767ZM12.598 29.983H15.6065C16.6349 29.983 17.3849 29.7869 17.8565 29.3949C18.3281 28.9972 18.5639 28.4687 18.5639 27.8097C18.5639 27.3267 18.4474 26.9006 18.2145 26.5312C17.9815 26.1619 17.6491 25.8722 17.2173 25.6619C16.7912 25.4517 16.2827 25.3466 15.6918 25.3466H12.598V29.983ZM12.598 22.8494H15.3338C15.8395 22.8494 16.2884 22.7614 16.6804 22.5852C17.0781 22.4034 17.3906 22.1477 17.6179 21.8182C17.8509 21.4886 17.9673 21.0938 17.9673 20.6335C17.9673 20.0028 17.7429 19.4943 17.294 19.108C16.8509 18.7216 16.2202 18.5284 15.402 18.5284H12.598V22.8494ZM39.6129 15.5455V33H35.9652V18.5455H28.9084V33H25.2607V15.5455H39.6129Z" fill="#FCFCFC"/>
</svg>
